<svg width="24" height="24" viewBox="0 0 24 24" fill="none" xmlns="http://www.w3.org/2000/svg">
<path d="M5.27308 6.1071L1.78564 4.11937L1.78567 14.6858L10.2833 20.1238C11.3817 20.9169 12.8302 20.7574 13.914 19.9421L22.2142 13.8048V3.35712L17.9138 5.81885C16.6792 5.87857 14.1054 5.9598 13.5836 6.08256C12.7949 6.2116 12.1534 6.61659 11.7728 6.88054L11.738 6.83643C10.7416 5.67273 9.43687 5.34361 8.38604 5.5363L5.27308 6.1071Z" fill="#F8E2FF"/>
<path d="M0.943848 14.1524C1.24176 13.6875 1.85972 13.5519 2.32471 13.8497L10.8423 19.3077C11.5879 19.7855 12.5173 19.75 13.2222 19.2198L13.228 19.2149L18.145 15.5733C18.5888 15.2449 19.2148 15.3386 19.5435 15.7823C19.8719 16.226 19.779 16.852 19.3354 17.1807L14.4243 20.8165L14.4253 20.8174C13.0512 21.8515 11.2113 21.9192 9.76318 20.9913L1.24658 15.5333C0.78165 15.2354 0.646081 14.6174 0.943848 14.1524Z" fill="#971FD1"/>
<path d="M21.7173 2.48893C22.1964 2.21467 22.807 2.38103 23.0815 2.86002C23.356 3.33927 23.1907 3.95077 22.7114 4.22525L18.4106 6.68814C18.2732 6.76681 18.1186 6.81158 17.9604 6.819L14.3764 6.98697C13.5262 7.0269 12.7152 7.35782 12.0796 7.92447L9.63719 10.1022C9.28088 10.4199 9.22505 10.9569 9.50828 11.3415C9.81566 11.7588 10.4048 11.8413 10.8149 11.5251L12.7016 10.071L12.7778 10.0172C13.1712 9.76824 13.6911 9.82344 14.0239 10.1608L18.8442 15.0465L21.6216 13.0046C22.0665 12.6774 22.6928 12.7726 23.02 13.2174C23.3472 13.6624 23.2511 14.2887 22.8061 14.6159L19.3325 17.1706C18.9324 17.4648 18.3766 17.4206 18.0278 17.0671L13.2212 12.195L12.0366 13.109C10.738 14.1105 8.87052 13.8482 7.89793 12.528C7.00255 11.3124 7.17929 9.61486 8.30613 8.61002L10.7485 6.43228C11.7264 5.56048 12.9742 5.05035 14.2827 4.98893L17.6264 4.8317L21.7173 2.48893Z" fill="#971FD1"/>
<path d="M16.3244 9.9059C16.6364 9.45025 17.2584 9.33332 17.7141 9.64516C18.1696 9.95705 18.2864 10.5791 17.9748 11.0348C17.4662 11.7778 16.5876 12.3204 15.6399 12.4918C14.6574 12.6696 13.5368 12.4585 12.6262 11.5993C12.2245 11.2202 12.2062 10.5869 12.5852 10.1852C12.9642 9.7835 13.5975 9.76516 13.9992 10.1442C14.3911 10.5139 14.8459 10.6034 15.2844 10.5241C15.7572 10.4384 16.1462 10.1661 16.3244 9.9059Z" fill="#971FD1"/>
<path d="M0.916547 3.62468C1.19006 3.14505 1.8011 2.97738 2.2808 3.25065L5.45073 5.05827L8.2017 4.55436C9.48703 4.31856 10.7926 4.67084 11.7994 5.4987L11.9966 5.67057L12.0484 5.72233L12.4908 6.19401C12.8682 6.59721 12.8471 7.23065 12.4439 7.60808C12.0408 7.98528 11.4082 7.96412 11.0308 7.5612L10.6216 7.1237C10.0443 6.60135 9.29153 6.38849 8.56303 6.52214L5.45366 7.09245C5.22192 7.13496 4.98255 7.09391 4.77787 6.97722L1.29057 4.98893C0.810941 4.71542 0.643273 4.10438 0.916547 3.62468Z" fill="#971FD1"/>
</svg>
