<svg width="24" height="24" viewBox="0 0 24 24" fill="none" xmlns="http://www.w3.org/2000/svg">
<path d="M20.6429 20.6429C20.6429 21.0597 20.4773 21.4594 20.1826 21.7541C19.888 22.0487 19.4882 22.2143 19.0715 22.2143H4.92861C4.51183 22.2143 4.11214 22.0487 3.81743 21.7541C3.52274 21.4594 3.35718 21.0597 3.35718 20.6429V3.3572C3.35718 2.94042 3.52274 2.54073 3.81743 2.24603C4.11214 1.95133 4.51183 1.78577 4.92861 1.78577H15.1429L20.6429 7.28577V20.6429Z" fill="#F8E2FF"/>
<path d="M2.35718 20.6432V3.35706C2.35721 2.67511 2.62793 2.02089 3.11011 1.5387C3.59231 1.0565 4.24652 0.785804 4.92847 0.785767H15.1433L15.2419 0.790649C15.4708 0.81342 15.6863 0.914691 15.8503 1.07874L21.3503 6.57874C21.5377 6.76625 21.6433 7.02065 21.6433 7.28577V20.6432C21.6432 21.3251 21.3715 21.9795 20.8894 22.4615C20.4073 22.9435 19.7529 23.2145 19.071 23.2145H4.92847C4.24643 23.2144 3.59221 22.9435 3.11011 22.4615C2.62786 21.9794 2.35725 21.325 2.35718 20.6432ZM4.35718 20.6432C4.35725 20.7945 4.41739 20.9396 4.52417 21.0465C4.63141 21.1537 4.77706 21.2144 4.92847 21.2145H19.071C19.2225 21.2145 19.3682 21.1536 19.4753 21.0465C19.5823 20.9395 19.6432 20.7945 19.6433 20.6432V7.70081L14.7283 2.78577H4.92847C4.77697 2.7858 4.63131 2.84562 4.52417 2.95276C4.41704 3.0599 4.35721 3.20556 4.35718 3.35706V20.6432Z" fill="#971FD1"/>
<path d="M11.2141 7.07153C11.7664 7.07153 12.2141 7.51925 12.2141 8.07153C12.2141 8.62382 11.7664 9.07153 11.2141 9.07153H8.07153C7.51925 9.07153 7.07153 8.62382 7.07153 8.07153C7.07153 7.51925 7.51925 7.07153 8.07153 7.07153H11.2141Z" fill="#971FD1"/>
<path d="M15.929 11.7858C16.4811 11.7859 16.929 12.2336 16.929 12.7858C16.929 13.338 16.4811 13.7856 15.929 13.7858H8.07153C7.51925 13.7858 7.07153 13.3381 7.07153 12.7858C7.07153 12.2335 7.51925 11.7858 8.07153 11.7858H15.929Z" fill="#971FD1"/>
<path d="M15.929 16.5C16.4811 16.5002 16.929 16.9478 16.929 17.5C16.929 18.0522 16.4811 18.4998 15.929 18.5H8.07153C7.51925 18.5 7.07153 18.0523 7.07153 17.5C7.07153 16.9477 7.51925 16.5 8.07153 16.5H15.929Z" fill="#971FD1"/>
</svg>
